REM DIRINDEX 1\4,1\2\5,1\2\6,1\3\7,1\3\8
REM DIRNAME cjc124,folder01,folder02,folder03,folder04,folder05,folder06,folder07
TITLE ""
FILE "068_Day34_Check3_Sentences.mp3" MP3
  TRACK 01 AUDIO
    TITLE "0:"
    INDEX 01 00:00:00
  TRACK 02 AUDIO
    TITLE "4:cjc124_2214"
    INDEX 01 00:00:25
  TRACK 03 AUDIO
    TITLE "0:"
    INDEX 01 00:02:00
  TRACK 04 AUDIO
    TITLE "7:cjc124_2215"
    INDEX 01 00:02:53
  TRACK 05 AUDIO
    TITLE "0:"
    INDEX 01 00:06:16
  TRACK 06 AUDIO
    TITLE "8:cjc124_2216"
    INDEX 01 00:06:31
  TRACK 07 AUDIO
    TITLE "0:"
    INDEX 01 00:09:44
  TRACK 08 AUDIO
    TITLE "7:cjc124_2217"
    INDEX 01 00:10:06
  TRACK 09 AUDIO
    TITLE "0:"
    INDEX 01 00:13:04
  TRACK 10 AUDIO
    TITLE "8:cjc124_2218"
    INDEX 01 00:13:20
  TRACK 11 AUDIO
    TITLE "0:"
    INDEX 01 00:15:56
  TRACK 12 AUDIO
    TITLE "7:cjc124_2219"
    INDEX 01 00:16:18
  TRACK 13 AUDIO
    TITLE "0:"
    INDEX 01 00:17:65
  TRACK 14 AUDIO
    TITLE "8:cjc124_2220"
    INDEX 01 00:18:05
  TRACK 15 AUDIO
    TITLE "0:"
    INDEX 01 00:19:73
  TRACK 16 AUDIO
    TITLE "7:cjc124_2221"
    INDEX 01 00:20:36
  TRACK 17 AUDIO
    TITLE "0:"
    INDEX 01 00:23:10
  TRACK 18 AUDIO
    TITLE "8:cjc124_2222"
    INDEX 01 00:23:26
  TRACK 19 AUDIO
    TITLE "0:"
    INDEX 01 00:26:50
  TRACK 20 AUDIO
    TITLE "7:cjc124_2223"
    INDEX 01 00:27:10
  TRACK 21 AUDIO
    TITLE "0:"
    INDEX 01 00:29:44
  TRACK 22 AUDIO
    TITLE "8:cjc124_2224"
    INDEX 01 00:29:62
  TRACK 23 AUDIO
    TITLE "0:"
    INDEX 01 00:31:53
  TRACK 24 AUDIO
    TITLE "7:cjc124_2225"
    INDEX 01 00:32:19
  TRACK 25 AUDIO
    TITLE "0:"
    INDEX 01 00:34:26
  TRACK 26 AUDIO
    TITLE "8:cjc124_2226"
    INDEX 01 00:34:42
  TRACK 27 AUDIO
    TITLE "0:"
    INDEX 01 00:36:36
  TRACK 28 AUDIO
    TITLE "7:cjc124_2227"
    INDEX 01 00:36:74
  TRACK 29 AUDIO
    TITLE "0:"
    INDEX 01 00:39:60
  TRACK 30 AUDIO
    TITLE "8:cjc124_2228"
    INDEX 01 00:39:74
  TRACK 31 AUDIO
    TITLE "0:"
    INDEX 01 00:42:14
  TRACK 32 AUDIO
    TITLE "7:cjc124_2229"
    INDEX 01 00:42:51
  TRACK 33 AUDIO
    TITLE "0:"
    INDEX 01 00:44:40
  TRACK 34 AUDIO
    TITLE "8:cjc124_2230"
    INDEX 01 00:44:58
  TRACK 35 AUDIO
    TITLE "0:"
    INDEX 01 00:46:66
  TRACK 36 AUDIO
    TITLE "7:cjc124_2231"
    INDEX 01 00:47:25
  TRACK 37 AUDIO
    TITLE "0:"
    INDEX 01 00:49:43
  TRACK 38 AUDIO
    TITLE "8:cjc124_2232"
    INDEX 01 00:49:61
  TRACK 39 AUDIO
    TITLE "0:"
    INDEX 01 00:52:28
  TRACK 40 AUDIO
    TITLE "7:cjc124_2233"
    INDEX 01 00:52:67
  TRACK 41 AUDIO
    TITLE "0:"
    INDEX 01 00:55:14
  TRACK 42 AUDIO
    TITLE "8:cjc124_2234"
    INDEX 01 00:55:42
  TRACK 43 AUDIO
    TITLE "0:"
    INDEX 01 00:57:05
  TRACK 44 AUDIO
    TITLE "7:cjc124_2235"
    INDEX 01 00:57:43
  TRACK 45 AUDIO
    TITLE "0:"
    INDEX 01 01:00:08
  TRACK 46 AUDIO
    TITLE "8:cjc124_2236"
    INDEX 01 01:00:23
  TRACK 47 AUDIO
    TITLE "0:"
    INDEX 01 01:02:54
  TRACK 48 AUDIO
    TITLE "7:cjc124_2237"
    INDEX 01 01:03:14
  TRACK 49 AUDIO
    TITLE "0:"
    INDEX 01 01:05:28
  TRACK 50 AUDIO
    TITLE "8:cjc124_2238"
    INDEX 01 01:05:44
  TRACK 51 AUDIO
    TITLE "0:"
    INDEX 01 01:07:02
  TRACK 52 AUDIO
    TITLE "7:cjc124_2239"
    INDEX 01 01:07:41
  TRACK 53 AUDIO
    TITLE "0:"
    INDEX 01 01:10:20
  TRACK 54 AUDIO
    TITLE "8:cjc124_2240"
    INDEX 01 01:10:37
  TRACK 55 AUDIO
    TITLE "0:"
    INDEX 01 01:13:08
  TRACK 56 AUDIO
    TITLE "7:cjc124_2241"
    INDEX 01 01:13:47
  TRACK 57 AUDIO
    TITLE "0:"
    INDEX 01 01:15:58
  TRACK 58 AUDIO
    TITLE "8:cjc124_2242"
    INDEX 01 01:16:01
  TRACK 59 AUDIO
    TITLE "0:"
    INDEX 01 01:17:71
  TRACK 60 AUDIO
    TITLE "7:cjc124_2243"
    INDEX 01 01:18:33
  TRACK 61 AUDIO
    TITLE "0:"
    INDEX 01 01:21:21
  TRACK 62 AUDIO
    TITLE "8:cjc124_2244"
    INDEX 01 01:21:37
  TRACK 63 AUDIO
    TITLE "0:"
    INDEX 01 01:24:10
  TRACK 64 AUDIO
    TITLE "7:cjc124_2245"
    INDEX 01 01:24:47
  TRACK 65 AUDIO
    TITLE "0:"
    INDEX 01 01:28:35
  TRACK 66 AUDIO
    TITLE "8:cjc124_2246"
    INDEX 01 01:28:53
  TRACK 67 AUDIO
    TITLE "0:"
    INDEX 01 01:31:41
